<?xml version="1.0" encoding="utf-8"?>
<!-- Generator: Adobe Adobe Illustrator 28.5.0, SVG Export Plug-In . SVG Version: 6.00 Build 0)  -->
<svg version="1.1" id="Layer_1" xmlns="http://www.w3.org/2000/svg" xmlns:xlink="http://www.w3.org/1999/xlink" x="0px" y="0px"
	 width="364.2px" height="93.5px" viewBox="0 0 364.2 93.5" style="enable-background:new 0 0 364.2 93.5;" xml:space="preserve">
<style type="text/css">
	.st0{fill:#0E4193;}
	.st1{fill:#E20613;}
	.st2{stroke:#000000;stroke-miterlimit:10;}
	.st3{font-family:'OpenSans';}
	.st4{font-size:18.5193px;}
</style>
<g>
	<g>
		<path class="st0" d="M20.3,24.5c4.8,0,9.6,0,14.4,0c0.5,0,0.8,0.2,1.1,0.6c9.5,12.2,19,24.3,28.6,36.5c0.1,0.1,0.1,0.2,0.2,0.3
			c0.2-0.1,0.1-0.3,0.1-0.5c0-4.1,0-8.3,0-12.4c0-0.4-0.1-0.7-0.3-1C58.9,41.1,53.4,34.1,48,27.2c-0.4-0.4-0.7-0.7-1.3-0.6
			c-0.9,0.1-1.8,0-2.8,0c-0.4,0-0.5-0.1-0.5-0.5c0-1.6-0.1-1.6,1.6-1.6c4.3,0,8.6,0,12.9,0c0.5,0,0.8,0.2,1.1,0.5
			c4.4,5.7,8.9,11.3,13.4,17c0.3,0.3,0.4,0.5,0.7,0.1C77.2,37,81.3,32,85.4,26.9c0.1-0.1,0.1-0.2,0.2-0.3c0.2-0.2,0.4-0.2,0.6-0.2
			c1.3,0,2.6,0,4,0c0.2,0,0.4,0,0.6,0.2c-2.9,3.6-5.8,7.2-8.7,10.7c-2.3,2.9-4.7,5.8-7,8.6c-0.3,0.3-0.4,0.7-0.4,1.1
			c0,7.2,0,14.5,0,21.7c0,0.6-0.1,0.7-0.7,0.7c-5.1,0-10.3,0-15.4,0c-0.6,0-1-0.2-1.3-0.7c-6-7.6-11.9-15.3-17.9-22.9
			c-3.5-4.5-7.1-9-10.6-13.6c-0.1-0.1-0.2-0.4-0.5-0.4c0,0.2,0,0.4,0,0.7c0,11.4,0,22.7,0,34.1c0,0.6,0.1,0.9,0.8,0.8
			c0.9-0.1,1.9,0,2.8,0c0.3,0,0.4,0.1,0.4,0.4c0.1,1.6,0.1,1.6-1.5,1.6c-3.5,0-7.1,0-10.6,0c0-0.7,0-1.3,0-2
			c0.2-0.2,0.5-0.2,0.8-0.2c0.7,0,1.4,0,2.1,0c0.8,0,0.9-0.1,0.9-0.9c0-0.1,0-0.2,0-0.3c0-12.6,0-25.2,0-37.9c0-1.3,0-1.3-1.2-1.3
			c-0.6,0-1.2,0-1.7,0c-0.3,0-0.6,0-0.8-0.2C20.3,25.9,20.3,25.2,20.3,24.5z"/>
		<path class="st1" d="M90.8,26.6c-1.7-0.1-3.5-0.1-5.2,0c-1.6,0-3.1,0-4.7,0c-0.5,0-0.6-0.1-0.6-0.6c0-1.5,0-1.5,1.5-1.5
			c5.2,0,10.4-0.1,15.6,0c4.3,0.1,8.6,0.8,12.4,2.9c3.1,1.7,5.4,4.1,6.1,7.7c1.1,5.6-1.3,10.1-6.5,12.5c-3,1.4-6.1,2-9.4,2.4
			c-1.6,0.2-3.1,0.3-4.7,0.4c-0.4,0-0.5,0.2-0.5,0.5c0,5.3,0,10.6,0,15.9c0,0.4,0.1,0.6,0.6,0.6c1,0,2,0,3,0c0.3,0,0.5,0.1,0.5,0.5
			c0.1,1.6,0.1,1.6-1.5,1.6c-4,0-8,0-12,0c-0.5,0-0.6-0.1-0.6-0.6c0-6.5,0-13,0-19.5c0-0.9,0-0.9,0.9-0.9c3.1,0,6.1,0.1,9.2,0
			c4.3-0.1,7.8-1.9,9.9-5.7c2-3.7,1.9-7.5-0.4-11c-2.2-3.3-5.4-5-9.4-5.1C93.6,26.6,92.2,26.6,90.8,26.6z"/>
	</g>
	<line class="st2" x1="128.6" y1="69.5" x2="128.6" y2="24.5"/>
	<text transform="matrix(1 0 0 1 137.1001 39.8637)"><tspan x="0" y="0" class="st3 st4">Polytechnic Foundation </tspan><tspan x="0" y="22.2" class="st3 st4">Programme Club  </tspan></text>
</g>
</svg>
